<svg width="392" height="360" viewBox="0 0 392 360" fill="none" xmlns="http://www.w3.org/2000/svg">
<path d="M360.1 55.4391C386.506 111.41 402.537 163.608 383.991 221.466C365.444 279.638 312.634 343.47 267.682 338.753C222.731 334.351 185.638 260.771 148.859 192.222C111.766 123.359 74.3589 59.2124 92.9054 7.64357C111.138 -43.9253 185.323 -82.9164 240.963 -72.2253C296.602 -61.5342 333.695 -0.846428 360.1 55.4391Z" fill="#0C232D"/>
<path d="M304.61 63.8642C326.6 129.836 284.061 204.82 240.801 261.058C197.541 317.296 153.56 354.427 101.648 359.114C49.3757 363.8 -10.4673 336.042 -51.9248 280.885C-93.3824 225.729 -116.454 143.174 -86.1723 72.5162C-56.2508 1.85824 26.6641 -56.9033 111.382 -57.9848C196.099 -59.0663 282.619 -2.46777 304.61 63.8642Z" fill="#64D98A"/>
</svg>
