<svg width="54" height="36" viewBox="0 0 54 36" fill="none" xmlns="http://www.w3.org/2000/svg">
<path d="M53.25 32.5833C53.25 34.1942 51.9442 35.5 50.3333 35.5H3.66667C2.05584 35.5 0.75 34.1942 0.75 32.5833C0.75 30.9725 2.05584 29.6667 3.66667 29.6667H50.3333C51.9442 29.6667 53.25 30.9725 53.25 32.5833ZM53.25 18C53.25 19.6108 51.9442 20.9167 50.3333 20.9167H3.66667C2.05584 20.9167 0.75 19.6108 0.75 18C0.75 16.3892 2.05584 15.0833 3.66667 15.0833H50.3333C51.9442 15.0833 53.25 16.3892 53.25 18ZM53.25 3.41667C53.25 5.0275 51.9442 6.33333 50.3333 6.33333H3.66667C2.05584 6.33333 0.75 5.0275 0.75 3.41667C0.75 1.80584 2.05584 0.5 3.66667 0.5H50.3333C51.9442 0.5 53.25 1.80584 53.25 3.41667Z" fill="#64D98A"/>
</svg>
