<svg width="140" height="72" viewBox="0 0 140 72" fill="none" xmlns="http://www.w3.org/2000/svg">
<path d="M5.82252 58H19.742V25.495H27.6624V15.3004H19.3499V13.4575C19.3499 10.9873 20.9575 9.53656 24.8001 9.53656C25.8588 9.53656 26.9567 9.57577 27.7409 9.73261V1.10643C26.2117 0.792747 23.5062 0.518278 21.0752 0.518278C9.90035 0.518278 5.82252 4.40006 5.82252 12.8302V15.3004H0.137087V25.495H5.82252V58ZM32.5841 58H46.5036V1.42011H32.5841V58ZM60.6395 71.9195C71.0302 71.9195 77.7743 68.8611 81.2639 57.804L94.8698 15.3004H80.2053L72.5986 47.5702H72.2457L64.5997 15.3004H49.2295L63.9332 58L63.6195 58.9018C62.9137 60.7839 61.3061 61.6857 58.3654 61.6857C56.2088 61.6857 54.562 61.4505 53.6602 61.2544V71.3314C55.2286 71.6058 57.8948 71.9195 60.6395 71.9195ZM95.5567 58H109.947L116.848 43.9236H117.122L124.141 58H139.158L126.415 36.4738L139.197 15.3004H124.219L117.906 28.9455H117.632L111.28 15.3004H95.596L108.339 36.7874L95.5567 58Z" fill="#64D98A"/>
</svg>
